<?xml version="1.0" encoding="UTF-8" standalone="no"?>
<svg xmlns="http://www.w3.org/2000/svg" viewBox="0 0 24 24"><title>Id Tag</title><g id="Id_Tag" data-name="Id Tag"><path d="M10.5,8h3A1.5,1.5,0,0,0,15,6.5V3A3,3,0,1,0,9,3V6.5A1.5,1.5,0,0,0,10.5,8ZM12,2a1,1,0,1,1-1,1A1,1,0,0,1,12,2Z" style="fill:#303c42"/><path d="M19,4H16.5a.5.5,0,0,0-.5.5v2A2.5,2.5,0,0,1,13.5,9h-3A2.5,2.5,0,0,1,8,6.5v-2A.5.5,0,0,0,7.5,4H5A2,2,0,0,0,3,6V22a2,2,0,0,0,2,2H19a2,2,0,0,0,2-2V6A2,2,0,0,0,19,4Zm-7,7a2.5,2.5,0,1,1-2.5,2.5A2.5,2.5,0,0,1,12,11Zm4.5,8.84A1.12,1.12,0,0,1,15.43,21H8.57A1.12,1.12,0,0,1,7.5,19.84v-.32a2.3,2.3,0,0,1,1.08-2,6.94,6.94,0,0,1,3.42-1,6.94,6.94,0,0,1,3.42,1,2.3,2.3,0,0,1,1.08,2Z" style="fill:#303c42"/></g>
	<metadata>
		<rdf:RDF xmlns:rdf="http://www.w3.org/1999/02/22-rdf-syntax-ns#" xmlns:rdfs="http://www.w3.org/2000/01/rdf-schema#" xmlns:dc="http://purl.org/dc/elements/1.1/">
			<rdf:Description about="https://iconscout.com/legal#licenses" dc:title="ID; tag; book; person; identity; 4" dc:description="ID; tag; book; person; identity; 4" dc:publisher="Iconscout" dc:date="2017-02-21" dc:format="image/svg+xml" dc:language="en">
				<dc:creator>
					<rdf:Bag>
						<rdf:li>Alpár - Etele Méder</rdf:li>
					</rdf:Bag>
				</dc:creator>
			</rdf:Description>
		</rdf:RDF>
    </metadata></svg>
